<svg width="9" height="18" viewBox="0 0 9 18" fill="none" xmlns="http://www.w3.org/2000/svg">
<path d="M7.50771 17.1645C7.77802 17.165 8.03998 17.0703 8.24812 16.8967C8.36526 16.799 8.46209 16.679 8.53307 16.5436C8.60404 16.4081 8.64777 16.2599 8.66174 16.1075C8.67571 15.955 8.65965 15.8012 8.61448 15.655C8.56931 15.5088 8.49592 15.373 8.39851 15.2554L3.21571 9.01589L8.21341 2.76475C8.30951 2.64567 8.38127 2.50867 8.42457 2.3616C8.46788 2.21453 8.48187 2.0603 8.46574 1.90777C8.44961 1.75524 8.40369 1.60742 8.33061 1.47281C8.25752 1.3382 8.15872 1.21945 8.03988 1.12339C7.92018 1.01741 7.78001 0.937476 7.62815 0.888598C7.4763 0.839719 7.31604 0.822952 7.15744 0.839348C6.99884 0.855744 6.84532 0.904949 6.70652 0.983876C6.56771 1.0628 6.44662 1.16975 6.35084 1.298L0.763133 8.28251C0.592978 8.4908 0.499958 8.75207 0.499958 9.02171C0.499958 9.29134 0.592978 9.55261 0.763133 9.7609L6.54751 16.7454C6.66356 16.8863 6.81099 16.9976 6.97782 17.0705C7.14465 17.1433 7.32619 17.1755 7.50771 17.1645Z" fill="#3C4563"/>
</svg>
