<svg width="433" height="91" viewBox="0 0 433 91" fill="none" xmlns="http://www.w3.org/2000/svg">
<path d="M80.45 56L85.292 43.4H86.894L91.682 56H90.134L88.838 52.526H83.222L81.908 56H80.45ZM84.968 47.936L83.744 51.14H88.316L87.074 47.846C86.93 47.462 86.756 46.988 86.552 46.424C86.36 45.848 86.186 45.32 86.03 44.84C85.862 45.356 85.688 45.878 85.508 46.406C85.328 46.934 85.148 47.444 84.968 47.936ZM93.4789 56V42.68H94.8469V56H93.4789ZM97.5395 56V42.68H98.9075V56H97.5395ZM110.767 56.18C109.843 56.18 109.015 55.97 108.283 55.55C107.563 55.118 106.993 54.536 106.573 53.804C106.153 53.06 105.943 52.214 105.943 51.266C105.943 50.33 106.153 49.496 106.573 48.764C106.993 48.02 107.563 47.438 108.283 47.018C109.015 46.598 109.843 46.388 110.767 46.388C111.691 46.388 112.513 46.598 113.233 47.018C113.965 47.438 114.535 48.02 114.943 48.764C115.363 49.496 115.573 50.33 115.573 51.266C115.573 52.214 115.363 53.06 114.943 53.804C114.535 54.536 113.965 55.118 113.233 55.55C112.513 55.97 111.691 56.18 110.767 56.18ZM110.767 54.884C111.427 54.884 112.009 54.728 112.513 54.416C113.029 54.104 113.431 53.678 113.719 53.138C114.007 52.586 114.151 51.962 114.151 51.266C114.151 50.57 114.007 49.958 113.719 49.43C113.431 48.89 113.029 48.464 112.513 48.152C112.009 47.84 111.427 47.684 110.767 47.684C110.107 47.684 109.519 47.84 109.003 48.152C108.487 48.464 108.085 48.89 107.797 49.43C107.509 49.97 107.365 50.582 107.365 51.266C107.365 51.962 107.509 52.586 107.797 53.138C108.085 53.678 108.487 54.104 109.003 54.416C109.519 54.728 110.107 54.884 110.767 54.884ZM118.271 56V47.936H116.597V46.676H118.271V45.146C118.271 44.45 118.499 43.874 118.955 43.418C119.411 42.962 120.017 42.734 120.773 42.734C121.157 42.734 121.505 42.806 121.817 42.95C122.129 43.082 122.387 43.268 122.591 43.508L122.105 44.57C121.913 44.378 121.709 44.24 121.493 44.156C121.277 44.06 121.067 44.012 120.863 44.012C120.059 44.012 119.657 44.396 119.657 45.164V46.676H122.051V47.936H119.657V56H118.271ZM133.214 56.18C132.29 56.18 131.462 55.97 130.73 55.55C130.01 55.118 129.44 54.536 129.02 53.804C128.6 53.06 128.39 52.214 128.39 51.266C128.39 50.33 128.6 49.496 129.02 48.764C129.44 48.02 130.01 47.438 130.73 47.018C131.462 46.598 132.29 46.388 133.214 46.388C134.138 46.388 134.96 46.598 135.68 47.018C136.412 47.438 136.982 48.02 137.39 48.764C137.81 49.496 138.02 50.33 138.02 51.266C138.02 52.214 137.81 53.06 137.39 53.804C136.982 54.536 136.412 55.118 135.68 55.55C134.96 55.97 134.138 56.18 133.214 56.18ZM133.214 54.884C133.874 54.884 134.456 54.728 134.96 54.416C135.476 54.104 135.878 53.678 136.166 53.138C136.454 52.586 136.598 51.962 136.598 51.266C136.598 50.57 136.454 49.958 136.166 49.43C135.878 48.89 135.476 48.464 134.96 48.152C134.456 47.84 133.874 47.684 133.214 47.684C132.554 47.684 131.966 47.84 131.45 48.152C130.934 48.464 130.532 48.89 130.244 49.43C129.956 49.97 129.812 50.582 129.812 51.266C129.812 51.962 129.956 52.586 130.244 53.138C130.532 53.678 130.934 54.104 131.45 54.416C131.966 54.728 132.554 54.884 133.214 54.884ZM143.32 56.18C142.24 56.18 141.412 55.856 140.836 55.208C140.26 54.548 139.972 53.594 139.972 52.346V46.586H141.358V52.076C141.358 53.984 142.144 54.938 143.716 54.938C144.232 54.938 144.7 54.824 145.12 54.596C145.54 54.356 145.87 54.038 146.11 53.642C146.362 53.234 146.488 52.784 146.488 52.292V46.586H147.856V56H146.506L146.452 54.38C146.164 54.896 145.732 55.328 145.156 55.676C144.58 56.012 143.968 56.18 143.32 56.18ZM150.484 56V46.586H151.852L151.87 48.404C152.122 47.84 152.506 47.366 153.022 46.982C153.538 46.586 154.126 46.388 154.786 46.388C154.99 46.388 155.182 46.406 155.362 46.442C155.542 46.478 155.692 46.514 155.812 46.55L155.434 48.08C155.122 47.948 154.81 47.882 154.498 47.882C153.958 47.882 153.49 48.014 153.094 48.278C152.698 48.53 152.392 48.866 152.176 49.286C151.972 49.706 151.87 50.168 151.87 50.672V56H150.484ZM163.341 56V47.936H161.667V46.676H163.341V45.146C163.341 44.45 163.569 43.874 164.025 43.418C164.481 42.962 165.087 42.734 165.843 42.734C166.227 42.734 166.575 42.806 166.887 42.95C167.199 43.082 167.457 43.268 167.661 43.508L167.175 44.57C166.983 44.378 166.779 44.24 166.563 44.156C166.347 44.06 166.137 44.012 165.933 44.012C165.129 44.012 164.727 44.396 164.727 45.164V46.676H167.121V47.936H164.727V56H163.341ZM172.412 56.18C171.332 56.18 170.504 55.856 169.928 55.208C169.352 54.548 169.064 53.594 169.064 52.346V46.586H170.45V52.076C170.45 53.984 171.236 54.938 172.808 54.938C173.324 54.938 173.792 54.824 174.212 54.596C174.632 54.356 174.962 54.038 175.202 53.642C175.454 53.234 175.58 52.784 175.58 52.292V46.586H176.948V56H175.598L175.544 54.38C175.256 54.896 174.824 55.328 174.248 55.676C173.672 56.012 173.06 56.18 172.412 56.18ZM179.576 56V46.586H180.926L180.962 48.188C181.25 47.684 181.694 47.258 182.294 46.91C182.906 46.562 183.548 46.388 184.22 46.388C185.264 46.388 186.05 46.712 186.578 47.36C187.118 47.996 187.388 48.968 187.388 50.276V56H186.002V50.366C186.002 48.53 185.264 47.63 183.788 47.666C183.236 47.666 182.744 47.786 182.312 48.026C181.892 48.266 181.556 48.584 181.304 48.98C181.064 49.376 180.944 49.808 180.944 50.276V56H179.576ZM190.828 44.57C190.492 44.57 190.234 44.486 190.054 44.318C189.874 44.138 189.784 43.892 189.784 43.58C189.784 43.28 189.874 43.04 190.054 42.86C190.234 42.68 190.492 42.59 190.828 42.59C191.152 42.59 191.404 42.68 191.584 42.86C191.764 43.028 191.854 43.268 191.854 43.58C191.854 43.88 191.764 44.12 191.584 44.3C191.404 44.48 191.152 44.57 190.828 44.57ZM190.144 56V46.586H191.53V56H190.144ZM195.567 56V47.9H193.461V46.586H195.567V44.138H196.935V46.586H199.293V47.9H196.935V56H195.567ZM204.298 56.18C203.218 56.18 202.39 55.856 201.814 55.208C201.238 54.548 200.95 53.594 200.95 52.346V46.586H202.336V52.076C202.336 53.984 203.122 54.938 204.694 54.938C205.21 54.938 205.678 54.824 206.098 54.596C206.518 54.356 206.848 54.038 207.088 53.642C207.34 53.234 207.466 52.784 207.466 52.292V46.586H208.834V56H207.484L207.43 54.38C207.142 54.896 206.71 55.328 206.134 55.676C205.558 56.012 204.946 56.18 204.298 56.18ZM211.462 56V46.586H212.83L212.848 48.404C213.1 47.84 213.484 47.366 214 46.982C214.516 46.586 215.104 46.388 215.764 46.388C215.968 46.388 216.16 46.406 216.34 46.442C216.52 46.478 216.67 46.514 216.79 46.55L216.412 48.08C216.1 47.948 215.788 47.882 215.476 47.882C214.936 47.882 214.468 48.014 214.072 48.278C213.676 48.53 213.37 48.866 213.154 49.286C212.95 49.706 212.848 50.168 212.848 50.672V56H211.462ZM221.949 56.18C221.001 56.18 220.161 55.976 219.429 55.568C218.709 55.16 218.145 54.59 217.737 53.858C217.329 53.126 217.125 52.286 217.125 51.338C217.125 50.378 217.323 49.526 217.719 48.782C218.115 48.038 218.667 47.456 219.375 47.036C220.083 46.604 220.893 46.388 221.805 46.388C222.645 46.388 223.383 46.586 224.019 46.982C224.667 47.366 225.165 47.9 225.513 48.584C225.861 49.256 226.023 50.036 225.999 50.924L225.981 51.554H218.529C218.589 52.574 218.937 53.384 219.573 53.984C220.209 54.584 221.055 54.884 222.111 54.884C222.567 54.884 223.011 54.812 223.443 54.668C223.887 54.512 224.373 54.212 224.901 53.768L225.603 54.758C225.183 55.166 224.649 55.508 224.001 55.784C223.353 56.048 222.669 56.18 221.949 56.18ZM221.787 47.684C220.923 47.684 220.209 47.918 219.645 48.386C219.081 48.842 218.727 49.514 218.583 50.402H224.613V50.294C224.589 49.862 224.463 49.448 224.235 49.052C224.007 48.644 223.683 48.314 223.263 48.062C222.855 47.81 222.363 47.684 221.787 47.684ZM236.308 56.18C235.228 56.18 234.4 55.856 233.824 55.208C233.248 54.548 232.96 53.594 232.96 52.346V46.586H234.346V52.076C234.346 53.984 235.132 54.938 236.704 54.938C237.22 54.938 237.688 54.824 238.108 54.596C238.528 54.356 238.858 54.038 239.098 53.642C239.35 53.234 239.476 52.784 239.476 52.292V46.586H240.844V56H239.494L239.44 54.38C239.152 54.896 238.72 55.328 238.144 55.676C237.568 56.012 236.956 56.18 236.308 56.18ZM246.568 56.18C245.752 56.18 245.026 56.036 244.39 55.748C243.766 55.448 243.262 55.046 242.878 54.542L243.85 53.696C244.534 54.548 245.476 54.974 246.676 54.974C247.252 54.974 247.72 54.848 248.08 54.596C248.452 54.332 248.638 53.972 248.638 53.516C248.638 53.132 248.47 52.814 248.134 52.562C247.978 52.442 247.756 52.328 247.468 52.22C247.18 52.112 246.832 51.998 246.424 51.878C245.752 51.698 245.194 51.506 244.75 51.302C244.306 51.098 243.958 50.864 243.706 50.6C243.346 50.192 243.166 49.682 243.166 49.07C243.166 48.554 243.304 48.098 243.58 47.702C243.868 47.294 244.258 46.976 244.75 46.748C245.254 46.508 245.818 46.388 246.442 46.388C247.114 46.388 247.762 46.532 248.386 46.82C249.022 47.096 249.538 47.456 249.934 47.9L249.088 48.818C248.728 48.446 248.326 48.146 247.882 47.918C247.45 47.69 246.994 47.576 246.514 47.576C245.926 47.576 245.452 47.708 245.092 47.972C244.744 48.236 244.57 48.584 244.57 49.016C244.57 49.364 244.708 49.652 244.984 49.88C245.152 50.012 245.386 50.138 245.686 50.258C245.998 50.366 246.382 50.48 246.838 50.6C247.354 50.744 247.798 50.894 248.17 51.05C248.542 51.194 248.848 51.368 249.088 51.572C249.688 52.028 249.988 52.652 249.988 53.444C249.988 53.972 249.838 54.446 249.538 54.866C249.238 55.274 248.83 55.598 248.314 55.838C247.798 56.066 247.216 56.18 246.568 56.18ZM256.243 56.18C255.295 56.18 254.455 55.976 253.723 55.568C253.003 55.16 252.439 54.59 252.031 53.858C251.623 53.126 251.419 52.286 251.419 51.338C251.419 50.378 251.617 49.526 252.013 48.782C252.409 48.038 252.961 47.456 253.669 47.036C254.377 46.604 255.187 46.388 256.099 46.388C256.939 46.388 257.677 46.586 258.313 46.982C258.961 47.366 259.459 47.9 259.807 48.584C260.155 49.256 260.317 50.036 260.293 50.924L260.275 51.554H252.823C252.883 52.574 253.231 53.384 253.867 53.984C254.503 54.584 255.349 54.884 256.405 54.884C256.861 54.884 257.305 54.812 257.737 54.668C258.181 54.512 258.667 54.212 259.195 53.768L259.897 54.758C259.477 55.166 258.943 55.508 258.295 55.784C257.647 56.048 256.963 56.18 256.243 56.18ZM256.081 47.684C255.217 47.684 254.503 47.918 253.939 48.386C253.375 48.842 253.021 49.514 252.877 50.402H258.907V50.294C258.883 49.862 258.757 49.448 258.529 49.052C258.301 48.644 257.977 48.314 257.557 48.062C257.149 47.81 256.657 47.684 256.081 47.684ZM265.324 56.18C264.508 56.18 263.782 56.036 263.146 55.748C262.522 55.448 262.018 55.046 261.634 54.542L262.606 53.696C263.29 54.548 264.232 54.974 265.432 54.974C266.008 54.974 266.476 54.848 266.836 54.596C267.208 54.332 267.394 53.972 267.394 53.516C267.394 53.132 267.226 52.814 266.89 52.562C266.734 52.442 266.512 52.328 266.224 52.22C265.936 52.112 265.588 51.998 265.18 51.878C264.508 51.698 263.95 51.506 263.506 51.302C263.062 51.098 262.714 50.864 262.462 50.6C262.102 50.192 261.922 49.682 261.922 49.07C261.922 48.554 262.06 48.098 262.336 47.702C262.624 47.294 263.014 46.976 263.506 46.748C264.01 46.508 264.574 46.388 265.198 46.388C265.87 46.388 266.518 46.532 267.142 46.82C267.778 47.096 268.294 47.456 268.69 47.9L267.844 48.818C267.484 48.446 267.082 48.146 266.638 47.918C266.206 47.69 265.75 47.576 265.27 47.576C264.682 47.576 264.208 47.708 263.848 47.972C263.5 48.236 263.326 48.584 263.326 49.016C263.326 49.364 263.464 49.652 263.74 49.88C263.908 50.012 264.142 50.138 264.442 50.258C264.754 50.366 265.138 50.48 265.594 50.6C266.11 50.744 266.554 50.894 266.926 51.05C267.298 51.194 267.604 51.368 267.844 51.572C268.444 52.028 268.744 52.652 268.744 53.444C268.744 53.972 268.594 54.446 268.294 54.866C267.994 55.274 267.586 55.598 267.07 55.838C266.554 56.066 265.972 56.18 265.324 56.18ZM277.182 56V47.9H275.076V46.586H277.182V44.138H278.55V46.586H280.908V47.9H278.55V56H277.182ZM282.584 56V42.68H283.952V48.26C284.264 47.708 284.72 47.258 285.32 46.91C285.92 46.562 286.538 46.388 287.174 46.388C288.254 46.388 289.058 46.712 289.586 47.36C290.126 47.996 290.396 48.968 290.396 50.276V56H289.01V50.366C289.01 48.542 288.266 47.642 286.778 47.666C286.238 47.666 285.752 47.786 285.32 48.026C284.9 48.266 284.564 48.584 284.312 48.98C284.072 49.376 283.952 49.808 283.952 50.276V56H282.584ZM297.13 56.18C296.182 56.18 295.342 55.976 294.61 55.568C293.89 55.16 293.326 54.59 292.918 53.858C292.51 53.126 292.306 52.286 292.306 51.338C292.306 50.378 292.504 49.526 292.9 48.782C293.296 48.038 293.848 47.456 294.556 47.036C295.264 46.604 296.074 46.388 296.986 46.388C297.826 46.388 298.564 46.586 299.2 46.982C299.848 47.366 300.346 47.9 300.694 48.584C301.042 49.256 301.204 50.036 301.18 50.924L301.162 51.554H293.71C293.77 52.574 294.118 53.384 294.754 53.984C295.39 54.584 296.236 54.884 297.292 54.884C297.748 54.884 298.192 54.812 298.624 54.668C299.068 54.512 299.554 54.212 300.082 53.768L300.784 54.758C300.364 55.166 299.83 55.508 299.182 55.784C298.534 56.048 297.85 56.18 297.13 56.18ZM296.968 47.684C296.104 47.684 295.39 47.918 294.826 48.386C294.262 48.842 293.908 49.514 293.764 50.402H299.794V50.294C299.77 49.862 299.644 49.448 299.416 49.052C299.188 48.644 298.864 48.314 298.444 48.062C298.036 47.81 297.544 47.684 296.968 47.684ZM312.93 56.18C312.222 56.18 311.562 56.012 310.95 55.676C310.338 55.34 309.87 54.926 309.546 54.434L309.51 55.964H308.16V42.68H309.528V48.242C309.828 47.726 310.284 47.288 310.896 46.928C311.52 46.568 312.192 46.388 312.912 46.388C313.74 46.388 314.49 46.598 315.162 47.018C315.834 47.438 316.362 48.02 316.746 48.764C317.142 49.496 317.34 50.336 317.34 51.284C317.34 52.22 317.148 53.06 316.764 53.804C316.38 54.536 315.852 55.118 315.18 55.55C314.52 55.97 313.77 56.18 312.93 56.18ZM312.714 54.884C313.35 54.884 313.914 54.728 314.406 54.416C314.898 54.104 315.282 53.678 315.558 53.138C315.834 52.586 315.972 51.962 315.972 51.266C315.972 50.582 315.834 49.97 315.558 49.43C315.282 48.89 314.898 48.464 314.406 48.152C313.914 47.84 313.35 47.684 312.714 47.684C312.078 47.684 311.514 47.84 311.022 48.152C310.53 48.464 310.146 48.89 309.87 49.43C309.594 49.97 309.456 50.582 309.456 51.266C309.456 51.974 309.594 52.598 309.87 53.138C310.158 53.678 310.548 54.104 311.04 54.416C311.532 54.728 312.09 54.884 312.714 54.884ZM323.462 56.18C322.514 56.18 321.674 55.976 320.942 55.568C320.222 55.16 319.658 54.59 319.25 53.858C318.842 53.126 318.638 52.286 318.638 51.338C318.638 50.378 318.836 49.526 319.232 48.782C319.628 48.038 320.18 47.456 320.888 47.036C321.596 46.604 322.406 46.388 323.318 46.388C324.158 46.388 324.896 46.586 325.532 46.982C326.18 47.366 326.678 47.9 327.026 48.584C327.374 49.256 327.536 50.036 327.512 50.924L327.494 51.554H320.042C320.102 52.574 320.45 53.384 321.086 53.984C321.722 54.584 322.568 54.884 323.624 54.884C324.08 54.884 324.524 54.812 324.956 54.668C325.4 54.512 325.886 54.212 326.414 53.768L327.116 54.758C326.696 55.166 326.162 55.508 325.514 55.784C324.866 56.048 324.182 56.18 323.462 56.18ZM323.3 47.684C322.436 47.684 321.722 47.918 321.158 48.386C320.594 48.842 320.24 49.514 320.096 50.402H326.126V50.294C326.102 49.862 325.976 49.448 325.748 49.052C325.52 48.644 325.196 48.314 324.776 48.062C324.368 47.81 323.876 47.684 323.3 47.684ZM332.543 56.18C331.727 56.18 331.001 56.036 330.365 55.748C329.741 55.448 329.237 55.046 328.853 54.542L329.825 53.696C330.509 54.548 331.451 54.974 332.651 54.974C333.227 54.974 333.695 54.848 334.055 54.596C334.427 54.332 334.613 53.972 334.613 53.516C334.613 53.132 334.445 52.814 334.109 52.562C333.953 52.442 333.731 52.328 333.443 52.22C333.155 52.112 332.807 51.998 332.399 51.878C331.727 51.698 331.169 51.506 330.725 51.302C330.281 51.098 329.933 50.864 329.681 50.6C329.321 50.192 329.141 49.682 329.141 49.07C329.141 48.554 329.279 48.098 329.555 47.702C329.843 47.294 330.233 46.976 330.725 46.748C331.229 46.508 331.793 46.388 332.417 46.388C333.089 46.388 333.737 46.532 334.361 46.82C334.997 47.096 335.513 47.456 335.909 47.9L335.063 48.818C334.703 48.446 334.301 48.146 333.857 47.918C333.425 47.69 332.969 47.576 332.489 47.576C331.901 47.576 331.427 47.708 331.067 47.972C330.719 48.236 330.545 48.584 330.545 49.016C330.545 49.364 330.683 49.652 330.959 49.88C331.127 50.012 331.361 50.138 331.661 50.258C331.973 50.366 332.357 50.48 332.813 50.6C333.329 50.744 333.773 50.894 334.145 51.05C334.517 51.194 334.823 51.368 335.063 51.572C335.663 52.028 335.963 52.652 335.963 53.444C335.963 53.972 335.813 54.446 335.513 54.866C335.213 55.274 334.805 55.598 334.289 55.838C333.773 56.066 333.191 56.18 332.543 56.18ZM339.356 56V47.9H337.25V46.586H339.356V44.138H340.724V46.586H343.082V47.9H340.724V56H339.356ZM81.296 84V74.586H82.664L82.682 76.206C82.994 75.666 83.438 75.234 84.014 74.91C84.59 74.574 85.214 74.406 85.886 74.406C86.558 74.406 87.128 74.562 87.596 74.874C88.076 75.186 88.436 75.72 88.676 76.476C88.856 76.104 89.12 75.762 89.468 75.45C89.816 75.138 90.212 74.886 90.656 74.694C91.112 74.502 91.592 74.406 92.096 74.406C93.092 74.406 93.848 74.73 94.364 75.378C94.892 76.014 95.156 76.998 95.156 78.33V84H93.77V78.402C93.77 77.478 93.596 76.8 93.248 76.368C92.9 75.924 92.378 75.702 91.682 75.702C91.142 75.702 90.662 75.822 90.242 76.062C89.822 76.302 89.492 76.62 89.252 77.016C89.024 77.412 88.91 77.844 88.91 78.312V84H87.524V78.384C87.524 76.596 86.828 75.702 85.436 75.702C84.908 75.702 84.434 75.822 84.014 76.062C83.594 76.29 83.264 76.602 83.024 76.998C82.796 77.394 82.682 77.826 82.682 78.294V84H81.296ZM101.386 84.18C100.57 84.18 99.8324 83.97 99.1724 83.55C98.5124 83.118 97.9904 82.536 97.6064 81.804C97.2224 81.06 97.0304 80.22 97.0304 79.284C97.0304 78.336 97.2284 77.496 97.6244 76.764C98.0204 76.02 98.5544 75.438 99.2264 75.018C99.8984 74.598 100.648 74.388 101.476 74.388C102.232 74.388 102.904 74.562 103.492 74.91C104.092 75.258 104.548 75.708 104.86 76.26L104.896 74.586H106.264V84H104.878V82.326C104.542 82.854 104.062 83.298 103.438 83.658C102.814 84.006 102.13 84.18 101.386 84.18ZM101.692 82.866C102.316 82.866 102.874 82.716 103.366 82.416C103.858 82.104 104.242 81.678 104.518 81.138C104.806 80.598 104.95 79.974 104.95 79.266C104.95 78.582 104.806 77.97 104.518 77.43C104.242 76.89 103.858 76.47 103.366 76.17C102.874 75.858 102.316 75.702 101.692 75.702C101.056 75.702 100.492 75.858 100 76.17C99.5204 76.47 99.1424 76.89 98.8664 77.43C98.5904 77.97 98.4524 78.582 98.4524 79.266C98.4524 79.962 98.5904 80.586 98.8664 81.138C99.1424 81.678 99.5204 82.104 100 82.416C100.492 82.716 101.056 82.866 101.692 82.866ZM110.173 84V75.9H108.067V74.586H110.173V72.138H111.541V74.586H113.899V75.9H111.541V84H110.173ZM119.644 84.18C118.696 84.18 117.856 83.976 117.124 83.568C116.404 83.16 115.84 82.59 115.432 81.858C115.024 81.126 114.82 80.286 114.82 79.338C114.82 78.378 115.018 77.526 115.414 76.782C115.81 76.038 116.362 75.456 117.07 75.036C117.778 74.604 118.588 74.388 119.5 74.388C120.34 74.388 121.078 74.586 121.714 74.982C122.362 75.366 122.86 75.9 123.208 76.584C123.556 77.256 123.718 78.036 123.694 78.924L123.676 79.554H116.224C116.284 80.574 116.632 81.384 117.268 81.984C117.904 82.584 118.75 82.884 119.806 82.884C120.262 82.884 120.706 82.812 121.138 82.668C121.582 82.512 122.068 82.212 122.596 81.768L123.298 82.758C122.878 83.166 122.344 83.508 121.696 83.784C121.048 84.048 120.364 84.18 119.644 84.18ZM119.482 75.684C118.618 75.684 117.904 75.918 117.34 76.386C116.776 76.842 116.422 77.514 116.278 78.402H122.308V78.294C122.284 77.862 122.158 77.448 121.93 77.052C121.702 76.644 121.378 76.314 120.958 76.062C120.55 75.81 120.058 75.684 119.482 75.684ZM125.628 84V74.586H126.996L127.014 76.404C127.266 75.84 127.65 75.366 128.166 74.982C128.682 74.586 129.27 74.388 129.93 74.388C130.134 74.388 130.326 74.406 130.506 74.442C130.686 74.478 130.836 74.514 130.956 74.55L130.578 76.08C130.266 75.948 129.954 75.882 129.642 75.882C129.102 75.882 128.634 76.014 128.238 76.278C127.842 76.53 127.536 76.866 127.32 77.286C127.116 77.706 127.014 78.168 127.014 78.672V84H125.628ZM133.225 72.57C132.889 72.57 132.631 72.486 132.451 72.318C132.271 72.138 132.181 71.892 132.181 71.58C132.181 71.28 132.271 71.04 132.451 70.86C132.631 70.68 132.889 70.59 133.225 70.59C133.549 70.59 133.801 70.68 133.981 70.86C134.161 71.028 134.251 71.268 134.251 71.58C134.251 71.88 134.161 72.12 133.981 72.3C133.801 72.48 133.549 72.57 133.225 72.57ZM132.541 84V74.586H133.927V84H132.541ZM140.34 84.18C139.524 84.18 138.786 83.97 138.126 83.55C137.466 83.118 136.944 82.536 136.56 81.804C136.176 81.06 135.984 80.22 135.984 79.284C135.984 78.336 136.182 77.496 136.578 76.764C136.974 76.02 137.508 75.438 138.18 75.018C138.852 74.598 139.602 74.388 140.43 74.388C141.186 74.388 141.858 74.562 142.446 74.91C143.046 75.258 143.502 75.708 143.814 76.26L143.85 74.586H145.218V84H143.832V82.326C143.496 82.854 143.016 83.298 142.392 83.658C141.768 84.006 141.084 84.18 140.34 84.18ZM140.646 82.866C141.27 82.866 141.828 82.716 142.32 82.416C142.812 82.104 143.196 81.678 143.472 81.138C143.76 80.598 143.904 79.974 143.904 79.266C143.904 78.582 143.76 77.97 143.472 77.43C143.196 76.89 142.812 76.47 142.32 76.17C141.828 75.858 141.27 75.702 140.646 75.702C140.01 75.702 139.446 75.858 138.954 76.17C138.474 76.47 138.096 76.89 137.82 77.43C137.544 77.97 137.406 78.582 137.406 79.266C137.406 79.962 137.544 80.586 137.82 81.138C138.096 81.678 138.474 82.104 138.954 82.416C139.446 82.716 140.01 82.866 140.646 82.866ZM147.866 84V70.68H149.234V84H147.866ZM154.986 84.18C154.17 84.18 153.444 84.036 152.808 83.748C152.184 83.448 151.68 83.046 151.296 82.542L152.268 81.696C152.952 82.548 153.894 82.974 155.094 82.974C155.67 82.974 156.138 82.848 156.498 82.596C156.87 82.332 157.056 81.972 157.056 81.516C157.056 81.132 156.888 80.814 156.552 80.562C156.396 80.442 156.174 80.328 155.886 80.22C155.598 80.112 155.25 79.998 154.842 79.878C154.17 79.698 153.612 79.506 153.168 79.302C152.724 79.098 152.376 78.864 152.124 78.6C151.764 78.192 151.584 77.682 151.584 77.07C151.584 76.554 151.722 76.098 151.998 75.702C152.286 75.294 152.676 74.976 153.168 74.748C153.672 74.508 154.236 74.388 154.86 74.388C155.532 74.388 156.18 74.532 156.804 74.82C157.44 75.096 157.956 75.456 158.352 75.9L157.506 76.818C157.146 76.446 156.744 76.146 156.3 75.918C155.868 75.69 155.412 75.576 154.932 75.576C154.344 75.576 153.87 75.708 153.51 75.972C153.162 76.236 152.988 76.584 152.988 77.016C152.988 77.364 153.126 77.652 153.402 77.88C153.57 78.012 153.804 78.138 154.104 78.258C154.416 78.366 154.8 78.48 155.256 78.6C155.772 78.744 156.216 78.894 156.588 79.05C156.96 79.194 157.266 79.368 157.506 79.572C158.106 80.028 158.406 80.652 158.406 81.444C158.406 81.972 158.256 82.446 157.956 82.866C157.656 83.274 157.248 83.598 156.732 83.838C156.216 84.066 155.634 84.18 154.986 84.18ZM169.22 84.18C168.404 84.18 167.666 83.97 167.006 83.55C166.346 83.118 165.824 82.536 165.44 81.804C165.056 81.06 164.864 80.22 164.864 79.284C164.864 78.336 165.062 77.496 165.458 76.764C165.854 76.02 166.388 75.438 167.06 75.018C167.732 74.598 168.482 74.388 169.31 74.388C170.066 74.388 170.738 74.562 171.326 74.91C171.926 75.258 172.382 75.708 172.694 76.26L172.73 74.586H174.098V84H172.712V82.326C172.376 82.854 171.896 83.298 171.272 83.658C170.648 84.006 169.964 84.18 169.22 84.18ZM169.526 82.866C170.15 82.866 170.708 82.716 171.2 82.416C171.692 82.104 172.076 81.678 172.352 81.138C172.64 80.598 172.784 79.974 172.784 79.266C172.784 78.582 172.64 77.97 172.352 77.43C172.076 76.89 171.692 76.47 171.2 76.17C170.708 75.858 170.15 75.702 169.526 75.702C168.89 75.702 168.326 75.858 167.834 76.17C167.354 76.47 166.976 76.89 166.7 77.43C166.424 77.97 166.286 78.582 166.286 79.266C166.286 79.962 166.424 80.586 166.7 81.138C166.976 81.678 167.354 82.104 167.834 82.416C168.326 82.716 168.89 82.866 169.526 82.866ZM176.71 84V74.586H178.06L178.096 76.188C178.384 75.684 178.828 75.258 179.428 74.91C180.04 74.562 180.682 74.388 181.354 74.388C182.398 74.388 183.184 74.712 183.712 75.36C184.252 75.996 184.522 76.968 184.522 78.276V84H183.136V78.366C183.136 76.53 182.398 75.63 180.922 75.666C180.37 75.666 179.878 75.786 179.446 76.026C179.026 76.266 178.69 76.584 178.438 76.98C178.198 77.376 178.078 77.808 178.078 78.276V84H176.71ZM190.933 84.18C190.069 84.18 189.295 83.97 188.611 83.55C187.939 83.13 187.405 82.554 187.009 81.822C186.625 81.078 186.433 80.232 186.433 79.284C186.433 78.348 186.631 77.514 187.027 76.782C187.423 76.038 187.957 75.456 188.629 75.036C189.301 74.604 190.057 74.388 190.897 74.388C191.617 74.388 192.277 74.556 192.877 74.892C193.489 75.216 193.963 75.618 194.299 76.098V70.68H195.667V84H194.317L194.281 82.416C193.981 82.908 193.525 83.328 192.913 83.676C192.301 84.012 191.641 84.18 190.933 84.18ZM191.113 82.92C191.737 82.92 192.295 82.764 192.787 82.452C193.279 82.14 193.663 81.714 193.939 81.174C194.227 80.622 194.371 79.992 194.371 79.284C194.371 78.576 194.227 77.952 193.939 77.412C193.663 76.86 193.279 76.428 192.787 76.116C192.295 75.804 191.737 75.648 191.113 75.648C190.477 75.648 189.913 75.804 189.421 76.116C188.929 76.428 188.545 76.86 188.269 77.412C187.993 77.952 187.855 78.576 187.855 79.284C187.855 79.98 187.993 80.604 188.269 81.156C188.545 81.708 188.929 82.14 189.421 82.452C189.913 82.764 190.477 82.92 191.113 82.92ZM207.301 84.18C206.413 84.18 205.621 83.97 204.925 83.55C204.229 83.118 203.677 82.536 203.269 81.804C202.873 81.06 202.675 80.22 202.675 79.284C202.675 78.348 202.873 77.514 203.269 76.782C203.677 76.038 204.229 75.456 204.925 75.036C205.633 74.604 206.437 74.388 207.337 74.388C208.129 74.388 208.855 74.55 209.515 74.874C210.175 75.198 210.703 75.642 211.099 76.206L210.307 77.178C209.959 76.734 209.521 76.374 208.993 76.098C208.465 75.822 207.931 75.684 207.391 75.684C206.743 75.684 206.167 75.84 205.663 76.152C205.159 76.464 204.763 76.89 204.475 77.43C204.187 77.97 204.043 78.588 204.043 79.284C204.043 79.968 204.187 80.586 204.475 81.138C204.775 81.678 205.177 82.104 205.681 82.416C206.185 82.728 206.749 82.884 207.373 82.884C208.477 82.884 209.443 82.392 210.271 81.408L211.081 82.398C210.661 82.938 210.109 83.37 209.425 83.694C208.753 84.018 208.045 84.18 207.301 84.18ZM212.834 84V70.68H214.202V76.26C214.514 75.708 214.97 75.258 215.57 74.91C216.17 74.562 216.788 74.388 217.424 74.388C218.504 74.388 219.308 74.712 219.836 75.36C220.376 75.996 220.646 76.968 220.646 78.276V84H219.26V78.366C219.26 76.542 218.516 75.642 217.028 75.666C216.488 75.666 216.002 75.786 215.57 76.026C215.15 76.266 214.814 76.584 214.562 76.98C214.322 77.376 214.202 77.808 214.202 78.276V84H212.834ZM227.38 84.18C226.456 84.18 225.628 83.97 224.896 83.55C224.176 83.118 223.606 82.536 223.186 81.804C222.766 81.06 222.556 80.214 222.556 79.266C222.556 78.33 222.766 77.496 223.186 76.764C223.606 76.02 224.176 75.438 224.896 75.018C225.628 74.598 226.456 74.388 227.38 74.388C228.304 74.388 229.126 74.598 229.846 75.018C230.578 75.438 231.148 76.02 231.556 76.764C231.976 77.496 232.186 78.33 232.186 79.266C232.186 80.214 231.976 81.06 231.556 81.804C231.148 82.536 230.578 83.118 229.846 83.55C229.126 83.97 228.304 84.18 227.38 84.18ZM227.38 82.884C228.04 82.884 228.622 82.728 229.126 82.416C229.642 82.104 230.044 81.678 230.332 81.138C230.62 80.586 230.764 79.962 230.764 79.266C230.764 78.57 230.62 77.958 230.332 77.43C230.044 76.89 229.642 76.464 229.126 76.152C228.622 75.84 228.04 75.684 227.38 75.684C226.72 75.684 226.132 75.84 225.616 76.152C225.1 76.464 224.698 76.89 224.41 77.43C224.122 77.97 223.978 78.582 223.978 79.266C223.978 79.962 224.122 80.586 224.41 81.138C224.698 81.678 225.1 82.104 225.616 82.416C226.132 82.728 226.72 82.884 227.38 82.884ZM235.02 72.57C234.684 72.57 234.426 72.486 234.246 72.318C234.066 72.138 233.976 71.892 233.976 71.58C233.976 71.28 234.066 71.04 234.246 70.86C234.426 70.68 234.684 70.59 235.02 70.59C235.344 70.59 235.596 70.68 235.776 70.86C235.956 71.028 236.046 71.268 236.046 71.58C236.046 71.88 235.956 72.12 235.776 72.3C235.596 72.48 235.344 72.57 235.02 72.57ZM234.336 84V74.586H235.722V84H234.336ZM242.422 84.18C241.534 84.18 240.742 83.97 240.046 83.55C239.35 83.118 238.798 82.536 238.39 81.804C237.994 81.06 237.796 80.22 237.796 79.284C237.796 78.348 237.994 77.514 238.39 76.782C238.798 76.038 239.35 75.456 240.046 75.036C240.754 74.604 241.558 74.388 242.458 74.388C243.25 74.388 243.976 74.55 244.636 74.874C245.296 75.198 245.824 75.642 246.22 76.206L245.428 77.178C245.08 76.734 244.642 76.374 244.114 76.098C243.586 75.822 243.052 75.684 242.512 75.684C241.864 75.684 241.288 75.84 240.784 76.152C240.28 76.464 239.884 76.89 239.596 77.43C239.308 77.97 239.164 78.588 239.164 79.284C239.164 79.968 239.308 80.586 239.596 81.138C239.896 81.678 240.298 82.104 240.802 82.416C241.306 82.728 241.87 82.884 242.494 82.884C243.598 82.884 244.564 82.392 245.392 81.408L246.202 82.398C245.782 82.938 245.23 83.37 244.546 83.694C243.874 84.018 243.166 84.18 242.422 84.18ZM252.113 84.18C251.165 84.18 250.325 83.976 249.593 83.568C248.873 83.16 248.309 82.59 247.901 81.858C247.493 81.126 247.289 80.286 247.289 79.338C247.289 78.378 247.487 77.526 247.883 76.782C248.279 76.038 248.831 75.456 249.539 75.036C250.247 74.604 251.057 74.388 251.969 74.388C252.809 74.388 253.547 74.586 254.183 74.982C254.831 75.366 255.329 75.9 255.677 76.584C256.025 77.256 256.187 78.036 256.163 78.924L256.145 79.554H248.693C248.753 80.574 249.101 81.384 249.737 81.984C250.373 82.584 251.219 82.884 252.275 82.884C252.731 82.884 253.175 82.812 253.607 82.668C254.051 82.512 254.537 82.212 255.065 81.768L255.767 82.758C255.347 83.166 254.813 83.508 254.165 83.784C253.517 84.048 252.833 84.18 252.113 84.18ZM251.951 75.684C251.087 75.684 250.373 75.918 249.809 76.386C249.245 76.842 248.891 77.514 248.747 78.402H254.777V78.294C254.753 77.862 254.627 77.448 254.399 77.052C254.171 76.644 253.847 76.314 253.427 76.062C253.019 75.81 252.527 75.684 251.951 75.684ZM261.193 84.18C260.377 84.18 259.651 84.036 259.015 83.748C258.391 83.448 257.887 83.046 257.503 82.542L258.475 81.696C259.159 82.548 260.101 82.974 261.301 82.974C261.877 82.974 262.345 82.848 262.705 82.596C263.077 82.332 263.263 81.972 263.263 81.516C263.263 81.132 263.095 80.814 262.759 80.562C262.603 80.442 262.381 80.328 262.093 80.22C261.805 80.112 261.457 79.998 261.049 79.878C260.377 79.698 259.819 79.506 259.375 79.302C258.931 79.098 258.583 78.864 258.331 78.6C257.971 78.192 257.791 77.682 257.791 77.07C257.791 76.554 257.929 76.098 258.205 75.702C258.493 75.294 258.883 74.976 259.375 74.748C259.879 74.508 260.443 74.388 261.067 74.388C261.739 74.388 262.387 74.532 263.011 74.82C263.647 75.096 264.163 75.456 264.559 75.9L263.713 76.818C263.353 76.446 262.951 76.146 262.507 75.918C262.075 75.69 261.619 75.576 261.139 75.576C260.551 75.576 260.077 75.708 259.717 75.972C259.369 76.236 259.195 76.584 259.195 77.016C259.195 77.364 259.333 77.652 259.609 77.88C259.777 78.012 260.011 78.138 260.311 78.258C260.623 78.366 261.007 78.48 261.463 78.6C261.979 78.744 262.423 78.894 262.795 79.05C263.167 79.194 263.473 79.368 263.713 79.572C264.313 80.028 264.613 80.652 264.613 81.444C264.613 81.972 264.463 82.446 264.163 82.866C263.863 83.274 263.455 83.598 262.939 83.838C262.423 84.066 261.841 84.18 261.193 84.18ZM272.835 84V75.936H271.161V74.676H272.835V73.146C272.835 72.45 273.063 71.874 273.519 71.418C273.975 70.962 274.581 70.734 275.337 70.734C275.721 70.734 276.069 70.806 276.381 70.95C276.693 71.082 276.951 71.268 277.155 71.508L276.669 72.57C276.477 72.378 276.273 72.24 276.057 72.156C275.841 72.06 275.631 72.012 275.427 72.012C274.623 72.012 274.221 72.396 274.221 73.164V74.676H276.615V75.936H274.221V84H272.835ZM282.382 84.18C281.458 84.18 280.63 83.97 279.898 83.55C279.178 83.118 278.608 82.536 278.188 81.804C277.768 81.06 277.558 80.214 277.558 79.266C277.558 78.33 277.768 77.496 278.188 76.764C278.608 76.02 279.178 75.438 279.898 75.018C280.63 74.598 281.458 74.388 282.382 74.388C283.306 74.388 284.128 74.598 284.848 75.018C285.58 75.438 286.15 76.02 286.558 76.764C286.978 77.496 287.188 78.33 287.188 79.266C287.188 80.214 286.978 81.06 286.558 81.804C286.15 82.536 285.58 83.118 284.848 83.55C284.128 83.97 283.306 84.18 282.382 84.18ZM282.382 82.884C283.042 82.884 283.624 82.728 284.128 82.416C284.644 82.104 285.046 81.678 285.334 81.138C285.622 80.586 285.766 79.962 285.766 79.266C285.766 78.57 285.622 77.958 285.334 77.43C285.046 76.89 284.644 76.464 284.128 76.152C283.624 75.84 283.042 75.684 282.382 75.684C281.722 75.684 281.134 75.84 280.618 76.152C280.102 76.464 279.7 76.89 279.412 77.43C279.124 77.97 278.98 78.582 278.98 79.266C278.98 79.962 279.124 80.586 279.412 81.138C279.7 81.678 280.102 82.104 280.618 82.416C281.134 82.728 281.722 82.884 282.382 82.884ZM289.158 84V74.586H290.526L290.544 76.404C290.796 75.84 291.18 75.366 291.696 74.982C292.212 74.586 292.8 74.388 293.46 74.388C293.664 74.388 293.856 74.406 294.036 74.442C294.216 74.478 294.366 74.514 294.486 74.55L294.108 76.08C293.796 75.948 293.484 75.882 293.172 75.882C292.632 75.882 292.164 76.014 291.768 76.278C291.372 76.53 291.066 76.866 290.85 77.286C290.646 77.706 290.544 78.168 290.544 78.672V84H289.158ZM305.093 84.18C304.169 84.18 303.341 83.97 302.609 83.55C301.889 83.118 301.319 82.536 300.899 81.804C300.479 81.06 300.269 80.214 300.269 79.266C300.269 78.33 300.479 77.496 300.899 76.764C301.319 76.02 301.889 75.438 302.609 75.018C303.341 74.598 304.169 74.388 305.093 74.388C306.017 74.388 306.839 74.598 307.559 75.018C308.291 75.438 308.861 76.02 309.269 76.764C309.689 77.496 309.899 78.33 309.899 79.266C309.899 80.214 309.689 81.06 309.269 81.804C308.861 82.536 308.291 83.118 307.559 83.55C306.839 83.97 306.017 84.18 305.093 84.18ZM305.093 82.884C305.753 82.884 306.335 82.728 306.839 82.416C307.355 82.104 307.757 81.678 308.045 81.138C308.333 80.586 308.477 79.962 308.477 79.266C308.477 78.57 308.333 77.958 308.045 77.43C307.757 76.89 307.355 76.464 306.839 76.152C306.335 75.84 305.753 75.684 305.093 75.684C304.433 75.684 303.845 75.84 303.329 76.152C302.813 76.464 302.411 76.89 302.123 77.43C301.835 77.97 301.691 78.582 301.691 79.266C301.691 79.962 301.835 80.586 302.123 81.138C302.411 81.678 302.813 82.104 303.329 82.416C303.845 82.728 304.433 82.884 305.093 82.884ZM315.199 84.18C314.119 84.18 313.291 83.856 312.715 83.208C312.139 82.548 311.851 81.594 311.851 80.346V74.586H313.237V80.076C313.237 81.984 314.023 82.938 315.595 82.938C316.111 82.938 316.579 82.824 316.999 82.596C317.419 82.356 317.749 82.038 317.989 81.642C318.241 81.234 318.367 80.784 318.367 80.292V74.586H319.735V84H318.385L318.331 82.38C318.043 82.896 317.611 83.328 317.035 83.676C316.459 84.012 315.847 84.18 315.199 84.18ZM322.363 84V74.586H323.731L323.749 76.404C324.001 75.84 324.385 75.366 324.901 74.982C325.417 74.586 326.005 74.388 326.665 74.388C326.869 74.388 327.061 74.406 327.241 74.442C327.421 74.478 327.571 74.514 327.691 74.55L327.313 76.08C327.001 75.948 326.689 75.882 326.377 75.882C325.837 75.882 325.369 76.014 324.973 76.278C324.577 76.53 324.271 76.866 324.055 77.286C323.851 77.706 323.749 78.168 323.749 78.672V84H322.363ZM338.1 84.18C337.212 84.18 336.42 83.97 335.724 83.55C335.028 83.118 334.476 82.536 334.068 81.804C333.672 81.06 333.474 80.22 333.474 79.284C333.474 78.348 333.672 77.514 334.068 76.782C334.476 76.038 335.028 75.456 335.724 75.036C336.432 74.604 337.236 74.388 338.136 74.388C338.928 74.388 339.654 74.55 340.314 74.874C340.974 75.198 341.502 75.642 341.898 76.206L341.106 77.178C340.758 76.734 340.32 76.374 339.792 76.098C339.264 75.822 338.73 75.684 338.19 75.684C337.542 75.684 336.966 75.84 336.462 76.152C335.958 76.464 335.562 76.89 335.274 77.43C334.986 77.97 334.842 78.588 334.842 79.284C334.842 79.968 334.986 80.586 335.274 81.138C335.574 81.678 335.976 82.104 336.48 82.416C336.984 82.728 337.548 82.884 338.172 82.884C339.276 82.884 340.242 82.392 341.07 81.408L341.88 82.398C341.46 82.938 340.908 83.37 340.224 83.694C339.552 84.018 338.844 84.18 338.1 84.18ZM346.962 84.18C345.882 84.18 345.054 83.856 344.478 83.208C343.902 82.548 343.614 81.594 343.614 80.346V74.586H345V80.076C345 81.984 345.786 82.938 347.358 82.938C347.874 82.938 348.342 82.824 348.762 82.596C349.182 82.356 349.512 82.038 349.752 81.642C350.004 81.234 350.13 80.784 350.13 80.292V74.586H351.498V84H350.148L350.094 82.38C349.806 82.896 349.374 83.328 348.798 83.676C348.222 84.012 347.61 84.18 346.962 84.18ZM357.223 84.18C356.407 84.18 355.681 84.036 355.045 83.748C354.421 83.448 353.917 83.046 353.533 82.542L354.505 81.696C355.189 82.548 356.131 82.974 357.331 82.974C357.907 82.974 358.375 82.848 358.735 82.596C359.107 82.332 359.293 81.972 359.293 81.516C359.293 81.132 359.125 80.814 358.789 80.562C358.633 80.442 358.411 80.328 358.123 80.22C357.835 80.112 357.487 79.998 357.079 79.878C356.407 79.698 355.849 79.506 355.405 79.302C354.961 79.098 354.613 78.864 354.361 78.6C354.001 78.192 353.821 77.682 353.821 77.07C353.821 76.554 353.959 76.098 354.235 75.702C354.523 75.294 354.913 74.976 355.405 74.748C355.909 74.508 356.473 74.388 357.097 74.388C357.769 74.388 358.417 74.532 359.041 74.82C359.677 75.096 360.193 75.456 360.589 75.9L359.743 76.818C359.383 76.446 358.981 76.146 358.537 75.918C358.105 75.69 357.649 75.576 357.169 75.576C356.581 75.576 356.107 75.708 355.747 75.972C355.399 76.236 355.225 76.584 355.225 77.016C355.225 77.364 355.363 77.652 355.639 77.88C355.807 78.012 356.041 78.138 356.341 78.258C356.653 78.366 357.037 78.48 357.493 78.6C358.009 78.744 358.453 78.894 358.825 79.05C359.197 79.194 359.503 79.368 359.743 79.572C360.343 80.028 360.643 80.652 360.643 81.444C360.643 81.972 360.493 82.446 360.193 82.866C359.893 83.274 359.485 83.598 358.969 83.838C358.453 84.066 357.871 84.18 357.223 84.18ZM364.036 84V75.9H361.93V74.586H364.036V72.138H365.404V74.586H367.762V75.9H365.404V84H364.036ZM373.507 84.18C372.583 84.18 371.755 83.97 371.023 83.55C370.303 83.118 369.733 82.536 369.313 81.804C368.893 81.06 368.683 80.214 368.683 79.266C368.683 78.33 368.893 77.496 369.313 76.764C369.733 76.02 370.303 75.438 371.023 75.018C371.755 74.598 372.583 74.388 373.507 74.388C374.431 74.388 375.253 74.598 375.973 75.018C376.705 75.438 377.275 76.02 377.683 76.764C378.103 77.496 378.313 78.33 378.313 79.266C378.313 80.214 378.103 81.06 377.683 81.804C377.275 82.536 376.705 83.118 375.973 83.55C375.253 83.97 374.431 84.18 373.507 84.18ZM373.507 82.884C374.167 82.884 374.749 82.728 375.253 82.416C375.769 82.104 376.171 81.678 376.459 81.138C376.747 80.586 376.891 79.962 376.891 79.266C376.891 78.57 376.747 77.958 376.459 77.43C376.171 76.89 375.769 76.464 375.253 76.152C374.749 75.84 374.167 75.684 373.507 75.684C372.847 75.684 372.259 75.84 371.743 76.152C371.227 76.464 370.825 76.89 370.537 77.43C370.249 77.97 370.105 78.582 370.105 79.266C370.105 79.962 370.249 80.586 370.537 81.138C370.825 81.678 371.227 82.104 371.743 82.416C372.259 82.728 372.847 82.884 373.507 82.884ZM380.265 84V74.586H381.633L381.651 76.206C381.963 75.666 382.407 75.234 382.983 74.91C383.559 74.574 384.183 74.406 384.855 74.406C385.527 74.406 386.097 74.562 386.565 74.874C387.045 75.186 387.405 75.72 387.645 76.476C387.825 76.104 388.089 75.762 388.437 75.45C388.785 75.138 389.181 74.886 389.625 74.694C390.081 74.502 390.561 74.406 391.065 74.406C392.061 74.406 392.817 74.73 393.333 75.378C393.861 76.014 394.125 76.998 394.125 78.33V84H392.739V78.402C392.739 77.478 392.565 76.8 392.217 76.368C391.869 75.924 391.347 75.702 390.651 75.702C390.111 75.702 389.631 75.822 389.211 76.062C388.791 76.302 388.461 76.62 388.221 77.016C387.993 77.412 387.879 77.844 387.879 78.312V84H386.493V78.384C386.493 76.596 385.797 75.702 384.405 75.702C383.877 75.702 383.403 75.822 382.983 76.062C382.563 76.29 382.233 76.602 381.993 76.998C381.765 77.394 381.651 77.826 381.651 78.294V84H380.265ZM400.841 84.18C399.893 84.18 399.053 83.976 398.321 83.568C397.601 83.16 397.037 82.59 396.629 81.858C396.221 81.126 396.017 80.286 396.017 79.338C396.017 78.378 396.215 77.526 396.611 76.782C397.007 76.038 397.559 75.456 398.267 75.036C398.975 74.604 399.785 74.388 400.697 74.388C401.537 74.388 402.275 74.586 402.911 74.982C403.559 75.366 404.057 75.9 404.405 76.584C404.753 77.256 404.915 78.036 404.891 78.924L404.873 79.554H397.421C397.481 80.574 397.829 81.384 398.465 81.984C399.101 82.584 399.947 82.884 401.003 82.884C401.459 82.884 401.903 82.812 402.335 82.668C402.779 82.512 403.265 82.212 403.793 81.768L404.495 82.758C404.075 83.166 403.541 83.508 402.893 83.784C402.245 84.048 401.561 84.18 400.841 84.18ZM400.679 75.684C399.815 75.684 399.101 75.918 398.537 76.386C397.973 76.842 397.619 77.514 397.475 78.402H403.505V78.294C403.481 77.862 403.355 77.448 403.127 77.052C402.899 76.644 402.575 76.314 402.155 76.062C401.747 75.81 401.255 75.684 400.679 75.684ZM406.826 84V74.586H408.194L408.212 76.404C408.464 75.84 408.848 75.366 409.364 74.982C409.88 74.586 410.468 74.388 411.128 74.388C411.332 74.388 411.524 74.406 411.704 74.442C411.884 74.478 412.034 74.514 412.154 74.55L411.776 76.08C411.464 75.948 411.152 75.882 410.84 75.882C410.3 75.882 409.832 76.014 409.436 76.278C409.04 76.53 408.734 76.866 408.518 77.286C408.314 77.706 408.212 78.168 408.212 78.672V84H406.826ZM416.654 84.18C415.838 84.18 415.112 84.036 414.476 83.748C413.852 83.448 413.348 83.046 412.964 82.542L413.936 81.696C414.62 82.548 415.562 82.974 416.762 82.974C417.338 82.974 417.806 82.848 418.166 82.596C418.538 82.332 418.724 81.972 418.724 81.516C418.724 81.132 418.556 80.814 418.22 80.562C418.064 80.442 417.842 80.328 417.554 80.22C417.266 80.112 416.918 79.998 416.51 79.878C415.838 79.698 415.28 79.506 414.836 79.302C414.392 79.098 414.044 78.864 413.792 78.6C413.432 78.192 413.252 77.682 413.252 77.07C413.252 76.554 413.39 76.098 413.666 75.702C413.954 75.294 414.344 74.976 414.836 74.748C415.34 74.508 415.904 74.388 416.528 74.388C417.2 74.388 417.848 74.532 418.472 74.82C419.108 75.096 419.624 75.456 420.02 75.9L419.174 76.818C418.814 76.446 418.412 76.146 417.968 75.918C417.536 75.69 417.08 75.576 416.6 75.576C416.012 75.576 415.538 75.708 415.178 75.972C414.83 76.236 414.656 76.584 414.656 77.016C414.656 77.364 414.794 77.652 415.07 77.88C415.238 78.012 415.472 78.138 415.772 78.258C416.084 78.366 416.468 78.48 416.924 78.6C417.44 78.744 417.884 78.894 418.256 79.05C418.628 79.194 418.934 79.368 419.174 79.572C419.774 80.028 420.074 80.652 420.074 81.444C420.074 81.972 419.924 82.446 419.624 82.866C419.324 83.274 418.916 83.598 418.4 83.838C417.884 84.066 417.302 84.18 416.654 84.18ZM422.909 84.18C422.237 84.18 421.901 83.808 421.901 83.064C421.901 82.74 421.991 82.47 422.171 82.254C422.363 82.038 422.609 81.93 422.909 81.93C423.593 81.93 423.935 82.308 423.935 83.064C423.935 83.388 423.839 83.658 423.647 83.874C423.467 84.078 423.221 84.18 422.909 84.18Z" fill="#B1B6CA"/>
<path d="M87.632 22.216C86.32 22.216 85.088 22.04 83.936 21.688C82.8 21.336 81.832 20.832 81.032 20.176L82.088 17.92C82.92 18.544 83.784 19.008 84.68 19.312C85.592 19.6 86.584 19.744 87.656 19.744C88.84 19.744 89.752 19.536 90.392 19.12C91.048 18.704 91.376 18.12 91.376 17.368C91.376 16.728 91.072 16.24 90.464 15.904C89.872 15.552 88.888 15.224 87.512 14.92C85.368 14.456 83.808 13.856 82.832 13.12C81.856 12.384 81.368 11.312 81.368 9.904C81.368 8.896 81.64 8 82.184 7.216C82.728 6.432 83.496 5.816 84.488 5.368C85.496 4.92 86.656 4.696 87.968 4.696C89.168 4.696 90.304 4.88 91.376 5.248C92.464 5.6 93.352 6.096 94.04 6.736L93.008 8.992C91.488 7.776 89.808 7.168 87.968 7.168C86.864 7.168 85.992 7.4 85.352 7.864C84.712 8.312 84.392 8.928 84.392 9.712C84.392 10.384 84.672 10.896 85.232 11.248C85.808 11.6 86.784 11.928 88.16 12.232C89.584 12.568 90.744 12.936 91.64 13.336C92.536 13.72 93.224 14.224 93.704 14.848C94.184 15.456 94.424 16.224 94.424 17.152C94.424 18.176 94.152 19.072 93.608 19.84C93.064 20.592 92.28 21.176 91.256 21.592C90.232 22.008 89.024 22.216 87.632 22.216ZM104.342 9.568C105.382 9.568 106.302 9.84 107.102 10.384C107.918 10.912 108.55 11.664 108.998 12.64C109.462 13.6 109.694 14.704 109.694 15.952C109.694 17.2 109.47 18.296 109.022 19.24C108.574 20.184 107.942 20.912 107.126 21.424C106.326 21.936 105.398 22.192 104.342 22.192C103.462 22.192 102.678 22.008 101.99 21.64C101.302 21.256 100.774 20.728 100.406 20.056V27.184H97.4303V13.312C97.4303 12.032 97.3663 10.888 97.2383 9.88H100.046L100.286 11.968C100.606 11.216 101.126 10.632 101.846 10.216C102.566 9.784 103.398 9.568 104.342 9.568ZM103.526 19.84C104.534 19.84 105.31 19.504 105.854 18.832C106.398 18.16 106.67 17.2 106.67 15.952C106.67 14.688 106.398 13.704 105.854 13C105.31 12.28 104.542 11.92 103.55 11.92C102.526 11.92 101.742 12.264 101.198 12.952C100.654 13.64 100.382 14.624 100.382 15.904C100.382 17.168 100.654 18.144 101.198 18.832C101.742 19.504 102.518 19.84 103.526 19.84ZM124.258 9.88V22H121.306V20.056C120.938 20.728 120.41 21.256 119.722 21.64C119.034 22.008 118.25 22.192 117.37 22.192C116.314 22.192 115.378 21.936 114.562 21.424C113.746 20.912 113.114 20.184 112.666 19.24C112.218 18.296 111.994 17.2 111.994 15.952C111.994 14.704 112.218 13.6 112.666 12.64C113.13 11.664 113.77 10.912 114.586 10.384C115.402 9.84 116.33 9.568 117.37 9.568C118.25 9.568 119.034 9.76 119.722 10.144C120.41 10.512 120.938 11.032 121.306 11.704V9.88H124.258ZM118.186 19.84C119.178 19.84 119.946 19.496 120.49 18.808C121.034 18.12 121.306 17.152 121.306 15.904C121.306 14.624 121.034 13.64 120.49 12.952C119.946 12.264 119.17 11.92 118.162 11.92C117.17 11.92 116.394 12.28 115.834 13C115.29 13.704 115.018 14.688 115.018 15.952C115.018 17.2 115.29 18.16 115.834 18.832C116.394 19.504 117.178 19.84 118.186 19.84ZM133.374 22.192C132.11 22.192 131.014 21.936 130.086 21.424C129.158 20.912 128.446 20.192 127.95 19.264C127.454 18.32 127.206 17.216 127.206 15.952C127.206 14.688 127.462 13.576 127.974 12.616C128.502 11.656 129.238 10.912 130.182 10.384C131.142 9.84 132.246 9.568 133.494 9.568C134.358 9.568 135.19 9.704 135.99 9.976C136.806 10.248 137.454 10.624 137.934 11.104L137.094 13.216C136.582 12.8 136.038 12.488 135.462 12.28C134.886 12.056 134.318 11.944 133.758 11.944C132.67 11.944 131.822 12.288 131.214 12.976C130.606 13.648 130.302 14.624 130.302 15.904C130.302 17.184 130.598 18.16 131.19 18.832C131.798 19.504 132.654 19.84 133.758 19.84C134.318 19.84 134.886 19.728 135.462 19.504C136.038 19.28 136.582 18.96 137.094 18.544L137.934 20.656C137.422 21.136 136.758 21.512 135.942 21.784C135.126 22.056 134.27 22.192 133.374 22.192ZM150.91 16.096H142.558C142.622 17.392 142.942 18.352 143.518 18.976C144.11 19.584 144.982 19.888 146.134 19.888C147.462 19.888 148.694 19.456 149.83 18.592L150.694 20.656C150.118 21.12 149.406 21.496 148.558 21.784C147.726 22.056 146.878 22.192 146.014 22.192C144.03 22.192 142.47 21.632 141.334 20.512C140.198 19.392 139.63 17.856 139.63 15.904C139.63 14.672 139.878 13.576 140.374 12.616C140.87 11.656 141.566 10.912 142.462 10.384C143.358 9.84 144.374 9.568 145.51 9.568C147.174 9.568 148.486 10.112 149.446 11.2C150.422 12.272 150.91 13.752 150.91 15.64V16.096ZM145.582 11.728C144.782 11.728 144.126 11.968 143.614 12.448C143.118 12.912 142.798 13.592 142.654 14.488H148.294C148.198 13.576 147.918 12.888 147.454 12.424C147.006 11.96 146.382 11.728 145.582 11.728ZM168.71 22.216C167.03 22.216 165.558 21.856 164.294 21.136C163.046 20.416 162.086 19.4 161.414 18.088C160.742 16.76 160.406 15.208 160.406 13.432C160.406 11.672 160.742 10.136 161.414 8.824C162.086 7.496 163.046 6.48 164.294 5.776C165.558 5.056 167.03 4.696 168.71 4.696C169.862 4.696 170.942 4.88 171.95 5.248C172.974 5.6 173.822 6.096 174.494 6.736L173.486 8.992C172.718 8.368 171.95 7.92 171.182 7.648C170.43 7.36 169.622 7.216 168.758 7.216C167.11 7.216 165.83 7.752 164.918 8.824C164.022 9.896 163.574 11.432 163.574 13.432C163.574 15.448 164.022 17 164.918 18.088C165.814 19.16 167.094 19.696 168.758 19.696C169.622 19.696 170.43 19.56 171.182 19.288C171.95 19 172.718 18.544 173.486 17.92L174.494 20.176C173.822 20.816 172.974 21.32 171.95 21.688C170.942 22.04 169.862 22.216 168.71 22.216ZM188.33 9.88V22H185.402V20.128C185.018 20.8 184.506 21.312 183.866 21.664C183.226 22.016 182.49 22.192 181.658 22.192C178.698 22.192 177.218 20.528 177.218 17.2V9.88H180.194V17.224C180.194 18.104 180.37 18.752 180.722 19.168C181.09 19.584 181.65 19.792 182.402 19.792C183.282 19.792 183.986 19.504 184.514 18.928C185.042 18.352 185.306 17.584 185.306 16.624V9.88H188.33ZM196.38 22.192C194.188 22.192 192.444 21.68 191.148 20.656L191.988 18.544C193.284 19.504 194.764 19.984 196.428 19.984C197.148 19.984 197.7 19.864 198.084 19.624C198.484 19.384 198.684 19.048 198.684 18.616C198.684 18.248 198.548 17.96 198.276 17.752C198.004 17.528 197.54 17.336 196.884 17.176L194.868 16.72C192.66 16.24 191.556 15.112 191.556 13.336C191.556 12.6 191.764 11.952 192.18 11.392C192.596 10.816 193.18 10.368 193.932 10.048C194.684 9.728 195.556 9.568 196.548 9.568C197.412 9.568 198.244 9.704 199.044 9.976C199.844 10.232 200.548 10.608 201.156 11.104L200.268 13.144C199.052 12.248 197.804 11.8 196.524 11.8C195.836 11.8 195.3 11.928 194.916 12.184C194.532 12.44 194.34 12.792 194.34 13.24C194.34 13.592 194.452 13.872 194.676 14.08C194.916 14.288 195.316 14.464 195.876 14.608L197.94 15.064C199.14 15.336 200.012 15.76 200.556 16.336C201.116 16.896 201.396 17.632 201.396 18.544C201.396 19.664 200.948 20.552 200.052 21.208C199.156 21.864 197.932 22.192 196.38 22.192ZM208.015 12.136V17.56C208.015 18.984 208.679 19.696 210.007 19.696C210.375 19.696 210.775 19.632 211.207 19.504V21.88C210.679 22.072 210.039 22.168 209.287 22.168C207.911 22.168 206.855 21.784 206.119 21.016C205.383 20.248 205.015 19.144 205.015 17.704V12.136H202.687V9.88H205.015V6.928L208.015 5.92V9.88H211.231V12.136H208.015ZM219.142 22.192C217.91 22.192 216.822 21.936 215.878 21.424C214.95 20.912 214.23 20.184 213.718 19.24C213.222 18.28 212.974 17.16 212.974 15.88C212.974 14.6 213.222 13.488 213.718 12.544C214.23 11.584 214.95 10.848 215.878 10.336C216.822 9.824 217.91 9.568 219.142 9.568C220.358 9.568 221.43 9.824 222.358 10.336C223.286 10.848 223.998 11.584 224.494 12.544C225.006 13.488 225.262 14.6 225.262 15.88C225.262 17.16 225.006 18.28 224.494 19.24C223.998 20.184 223.286 20.912 222.358 21.424C221.43 21.936 220.358 22.192 219.142 22.192ZM219.118 19.84C220.142 19.84 220.918 19.512 221.446 18.856C221.99 18.184 222.262 17.192 222.262 15.88C222.262 14.584 221.99 13.6 221.446 12.928C220.902 12.24 220.134 11.896 219.142 11.896C218.134 11.896 217.358 12.24 216.814 12.928C216.27 13.6 215.998 14.584 215.998 15.88C215.998 17.192 216.262 18.184 216.79 18.856C217.334 19.512 218.11 19.84 219.118 19.84ZM242.506 9.568C243.882 9.568 244.906 9.984 245.578 10.816C246.25 11.632 246.586 12.88 246.586 14.56V22H243.586V14.656C243.586 13.696 243.426 13.008 243.106 12.592C242.802 12.16 242.29 11.944 241.57 11.944C240.738 11.944 240.082 12.24 239.602 12.832C239.138 13.408 238.906 14.208 238.906 15.232V22H235.906V14.656C235.906 13.712 235.738 13.024 235.402 12.592C235.082 12.16 234.57 11.944 233.866 11.944C233.034 11.944 232.378 12.24 231.898 12.832C231.418 13.408 231.178 14.208 231.178 15.232V22H228.202V13.312C228.202 12.032 228.138 10.888 228.01 9.88H230.818L231.034 11.8C231.386 11.08 231.89 10.528 232.546 10.144C233.218 9.76 233.986 9.568 234.85 9.568C236.706 9.568 237.914 10.336 238.474 11.872C238.858 11.152 239.402 10.592 240.106 10.192C240.826 9.776 241.626 9.568 242.506 9.568ZM250.141 9.88H253.117V22H250.141V9.88ZM253.285 4.384V7.336H249.949V4.384H253.285ZM266.831 19.72V22H256.295V19.912L262.991 12.136H256.439V9.88H266.567V11.92L259.847 19.72H266.831ZM281.001 9.88V22H278.049V20.056C277.681 20.728 277.153 21.256 276.465 21.64C275.777 22.008 274.993 22.192 274.113 22.192C273.057 22.192 272.121 21.936 271.305 21.424C270.489 20.912 269.857 20.184 269.409 19.24C268.961 18.296 268.737 17.2 268.737 15.952C268.737 14.704 268.961 13.6 269.409 12.64C269.873 11.664 270.513 10.912 271.329 10.384C272.145 9.84 273.073 9.568 274.113 9.568C274.993 9.568 275.777 9.76 276.465 10.144C277.153 10.512 277.681 11.032 278.049 11.704V9.88H281.001ZM274.929 19.84C275.921 19.84 276.689 19.496 277.233 18.808C277.777 18.12 278.049 17.152 278.049 15.904C278.049 14.624 277.777 13.64 277.233 12.952C276.689 12.264 275.913 11.92 274.905 11.92C273.913 11.92 273.137 12.28 272.577 13C272.033 13.704 271.761 14.688 271.761 15.952C271.761 17.2 272.033 18.16 272.577 18.832C273.137 19.504 273.921 19.84 274.929 19.84ZM288.437 12.136V17.56C288.437 18.984 289.101 19.696 290.429 19.696C290.797 19.696 291.197 19.632 291.629 19.504V21.88C291.101 22.072 290.461 22.168 289.709 22.168C288.333 22.168 287.277 21.784 286.541 21.016C285.805 20.248 285.437 19.144 285.437 17.704V12.136H283.109V9.88H285.437V6.928L288.437 5.92V9.88H291.653V12.136H288.437ZM294.068 9.88H297.044V22H294.068V9.88ZM297.212 4.384V7.336H293.876V4.384H297.212ZM306.175 22.192C304.943 22.192 303.855 21.936 302.911 21.424C301.983 20.912 301.263 20.184 300.751 19.24C300.255 18.28 300.007 17.16 300.007 15.88C300.007 14.6 300.255 13.488 300.751 12.544C301.263 11.584 301.983 10.848 302.911 10.336C303.855 9.824 304.943 9.568 306.175 9.568C307.391 9.568 308.463 9.824 309.391 10.336C310.319 10.848 311.031 11.584 311.527 12.544C312.039 13.488 312.295 14.6 312.295 15.88C312.295 17.16 312.039 18.28 311.527 19.24C311.031 20.184 310.319 20.912 309.391 21.424C308.463 21.936 307.391 22.192 306.175 22.192ZM306.151 19.84C307.175 19.84 307.951 19.512 308.479 18.856C309.023 18.184 309.295 17.192 309.295 15.88C309.295 14.584 309.023 13.6 308.479 12.928C307.935 12.24 307.167 11.896 306.175 11.896C305.167 11.896 304.391 12.24 303.847 12.928C303.303 13.6 303.031 14.584 303.031 15.88C303.031 17.192 303.295 18.184 303.823 18.856C304.367 19.512 305.143 19.84 306.151 19.84ZM322.171 9.568C325.067 9.568 326.515 11.232 326.515 14.56V22H323.515V14.704C323.515 13.744 323.331 13.048 322.963 12.616C322.595 12.168 322.027 11.944 321.259 11.944C320.347 11.944 319.611 12.24 319.051 12.832C318.491 13.408 318.211 14.176 318.211 15.136V22H315.235V13.312C315.235 12.032 315.171 10.888 315.043 9.88H317.851L318.067 11.872C318.483 11.136 319.043 10.568 319.747 10.168C320.467 9.768 321.275 9.568 322.171 9.568Z" fill="#000B70"/>
<path opacity="0.1" fill-rule="evenodd" clip-rule="evenodd" d="M25 50C38.8071 50 50 38.8071 50 25C50 11.1929 38.8071 0 25 0C11.1929 0 0 11.1929 0 25C0 38.8071 11.1929 50 25 50Z" fill="#1EA59A"/>
<path fill-rule="evenodd" clip-rule="evenodd" d="M25.825 15.025L33.025 22.75C33.25 23.05 33.4 23.425 33.4 23.8V32.5C33.4 33.325 32.725 34 31.9 34H17.5C16.675 34 16 33.325 16 32.5V23.8C16 23.425 16.15 23.05 16.375 22.75L23.575 15.025C24.175 14.425 25.075 14.35 25.675 14.95C25.75 15.025 25.75 15.025 25.825 15.025Z" stroke="#1EA59A" stroke-width="2" stroke-linecap="round" stroke-linejoin="round"/>
<path fill-rule="evenodd" clip-rule="evenodd" d="M24.7 27.1C26.0669 27.1 27.175 25.9919 27.175 24.625C27.175 23.2581 26.0669 22.15 24.7 22.15C23.3331 22.15 22.225 23.2581 22.225 24.625C22.225 25.9919 23.3331 27.1 24.7 27.1Z" stroke="#1EA59A" stroke-width="2" stroke-linecap="round" stroke-linejoin="round"/>
<path d="M23.65 30.175H25.75" stroke="#1EA59A" stroke-width="2" stroke-linecap="round" stroke-linejoin="round"/>
</svg>
